<?xml version="1.0" encoding="UTF-8"?><svg id="Livello_1" xmlns="http://www.w3.org/2000/svg" xmlns:xlink="http://www.w3.org/1999/xlink" viewBox="0 0 1798.02 928.06"><defs><style>.cls-1{clip-path:url(#clippath-2);}.cls-2{fill:url(#Sfumatura_senza_nome_4-3);}.cls-3{clip-path:url(#clippath-6);}.cls-4{clip-path:url(#clippath-1);}.cls-5{fill:#2a3795;}.cls-6{clip-path:url(#clippath-4);}.cls-7{fill:url(#Sfumatura_senza_nome_4-2);}.cls-8{fill:url(#Sfumatura_senza_nome_4);}.cls-9{clip-path:url(#clippath);}.cls-10{opacity:.11;}.cls-11{fill:none;}.cls-12{clip-path:url(#clippath-3);}.cls-13{clip-path:url(#clippath-5);}.cls-14{fill:url(#Sfumatura_senza_nome_4-4);}</style><clipPath id="clippath"><rect class="cls-11" x="900.08" y="69.94" width="897.93" height="788.18"/></clipPath><clipPath id="clippath-1"><polygon class="cls-11" points="1798.02 69.94 900.08 479.25 900.08 640.11 1798.02 219.3 1798.02 69.94"/></clipPath><linearGradient id="Sfumatura_senza_nome_4" x1="1.71" y1="929.85" x2="3.41" y2="929.85" gradientTransform="translate(0 490610.74) scale(527.24 -527.24)" gradientUnits="userSpaceOnUse"><stop offset="0" stop-color="#2a3795"/><stop offset=".57" stop-color="#3073bc"/><stop offset="1" stop-color="#359dd8"/></linearGradient><clipPath id="clippath-2"><polygon class="cls-11" points="1456.87 379.01 1798.02 538.71 1798.02 219.3 1456.87 379.01"/></clipPath><linearGradient id="Sfumatura_senza_nome_4-2" x1="6.59" y1="928.14" x2="8.3" y2="928.14" gradientTransform="translate(354.75 167462.8) scale(180.02 -180.02)" xlink:href="#Sfumatura_senza_nome_4"/><clipPath id="clippath-3"><polygon class="cls-11" points="1456.87 698.42 1798.02 538.71 1456.87 379.01 1456.87 698.42"/></clipPath><linearGradient id="Sfumatura_senza_nome_4-3" x1="-6.34" y1="930.48" x2="-4.64" y2="930.48" gradientTransform="translate(527.24 186927.82) rotate(-180) scale(200.31)" xlink:href="#Sfumatura_senza_nome_4"/><clipPath id="clippath-4"><rect class="cls-11" x="900.08" y="69.94" width="897.93" height="788.18"/></clipPath><clipPath id="clippath-5"><rect class="cls-11" x="1441.54" y="526.79" width="371.81" height="333.03"/></clipPath><clipPath id="clippath-6"><polygon class="cls-11" points="1798.02 538.71 1456.87 698.42 1798.02 858.12 1798.02 538.71"/></clipPath><linearGradient id="Sfumatura_senza_nome_4-4" x1="-6.83" y1="929.45" x2="-5.13" y2="929.45" gradientTransform="translate(574.79 -177920.95) rotate(-180) scale(192.18 -192.18)" xlink:href="#Sfumatura_senza_nome_4"/></defs><g class="cls-9"><g class="cls-4"><rect class="cls-8" x="900.08" y="69.94" width="897.93" height="570.17"/></g><g class="cls-1"><rect class="cls-7" x="1414.17" y="172.47" width="426.55" height="413.08" transform="translate(-34.73 550.49) rotate(-19)"/></g><g class="cls-12"><rect class="cls-2" x="1456.87" y="379.01" width="341.15" height="319.41"/></g><polygon class="cls-5" points="1456.87 538.71 1286.29 618.57 1456.87 698.42 1456.87 538.71"/><g class="cls-6"><g class="cls-10"><g class="cls-13"><g class="cls-3"><rect class="cls-14" x="1430.84" y="510.55" width="393.21" height="375.75" transform="translate(-99.34 305.26) rotate(-10.4)"/></g></g></g></g></g></svg>