<svg width="400" height="350" version="1.1" xmlns="http://www.w3.org/2000/svg">
  <defs></defs>
  <path id="a" d="m91.832 89.614v-15.99h-79.95v265.25h79.01v-16.931h-37.624c-8.9357 0-8.9357-8.9356-8.9357-8.9356v-209.75c0-12.698 11.993-11.993 11.993-11.993z" stroke="#000" stroke-width="3.8"></path>
  <path d="m71.337 113.73h87.007l42.272 131.05 43.708-131.05h84.339l-92.547 206.8h-74.079z" fill="#80aa00"></path>
  <path d="m91.832 89.614v-15.99h-79.95v265.25h79.01v-16.931h-37.624c-8.9357 0-8.9357-8.9356-8.9357-8.9356v-209.75c0-12.698 11.993-11.993 11.993-11.993z" stroke="#000" stroke-width="3.8" transform="matrix(-1, 0, 0, 1, 400.0199890136719, 0)"></path>
</svg>